<svg xmlns="http://www.w3.org/2000/svg" xmlns:xlink="http://www.w3.org/1999/xlink" width="209" height="42" viewBox="0 0 327.52 64.65"><defs><path id="a" d="M0 0h327.52v64.65H0z"/></defs><clipPath id="b"><use xlink:href="#a" overflow="visible"/></clipPath><path clip-path="url(#b)" fill="#A2A4A6" d="M31.64 48.7h-.07c-4.5-.13-8.71-1.95-11.88-5.12-3.32-3.31-5.14-7.72-5.14-12.41s1.83-9.1 5.14-12.41L31.64 6.81l11.95 11.95c3.32 3.32 5.14 7.72 5.14 12.41s-1.83 9.1-5.14 12.41c-3.16 3.17-7.38 4.98-11.88 5.12h-.07zm0-35.47l-8.74 8.74c-2.46 2.46-3.81 5.73-3.81 9.2 0 3.48 1.35 6.75 3.81 9.2 2.33 2.33 5.43 3.67 8.74 3.79 3.31-.12 6.41-1.46 8.74-3.79 2.46-2.46 3.81-5.72 3.81-9.2 0-3.47-1.35-6.74-3.81-9.2l-8.74-8.74z"/><path clip-path="url(#b)" fill="#27C2E1" d="M31.17 48.72c-4.7 0-9.1-1.82-12.41-5.12L5.13 29.96c-6.84-6.84-6.84-17.98 0-24.82C8.45 1.83 12.85 0 17.54 0s9.1 1.83 12.41 5.14l4.89 4.89L22.9 21.98c-2.46 2.46-3.81 5.73-3.81 9.2 0 3.48 1.35 6.75 3.81 9.2 2.34 2.34 5.47 3.69 8.81 3.79v4.54c-.18.01-.36.01-.54.01M17.54 4.54c-3.48 0-6.74 1.35-9.2 3.81-5.07 5.08-5.07 13.33 0 18.41l6.31 6.31c-.06-.62-.1-1.25-.1-1.87 0-4.69 1.83-9.1 5.14-12.41l8.74-8.74-1.69-1.69c-2.45-2.47-5.72-3.82-9.2-3.82"/><path clip-path="url(#b)" fill="#27C2E1" d="M32.1 48.72c-.18 0-.36 0-.53-.01v-4.53c3.34-.1 6.46-1.45 8.81-3.79 5.07-5.07 5.07-13.33 0-18.4L28.43 10.03l4.89-4.89C36.64 1.83 41.04 0 45.73 0s9.1 1.83 12.41 5.14c6.84 6.84 6.84 17.98 0 24.82L44.51 43.6c-3.31 3.3-7.71 5.12-12.41 5.12m2.75-38.69l8.74 8.74c3.9 3.9 5.58 9.2 5.03 14.3l6.32-6.32c5.07-5.07 5.07-13.33 0-18.4-2.46-2.46-5.73-3.81-9.2-3.81-3.48 0-6.74 1.35-9.2 3.81l-1.69 1.68z"/><defs><path id="c" d="M317.9 17.73c-.87 2.87-1.91 5.7-2.91 8.53-1.38 3.91-2.79 7.82-4.4 12.32-.62-1.41-.98-2.14-1.28-2.9-2.39-5.92-4.73-11.87-7.19-17.77-.34-.81-1.18-1.93-1.87-2-2.65-.23-5.34-.09-8.31-.09.39.95.59 1.46.81 1.96 4.31 9.8 8.63 19.59 12.9 29.41.43.98.91 2.21.67 3.15-1.34 5.36-5.13 7.43-10.41 5.94-.32-.09-.69-.01-1.1-.01-.41 2.23-.8 4.33-1.23 6.67 1.74.59 3.37 1.15 5.01 1.71h2.84c6.53-1.54 9.89-6.24 12.11-12.1 4.26-11.2 8.55-22.38 12.84-33.57.33-.86.76-1.69 1.14-2.53v-.57c-.68-.01-1.36 0-2.03 0-1.59.01-3.17.01-4.75-.1-.13-.01-.26-.01-.38-.01-1.34-.01-2.03.57-2.46 1.96M176.63 43.15c-5.76-.04-9.81-4.37-9.79-10.45.02-6 4.18-10.27 9.99-10.26 5.78.01 10.15 4.63 10.03 10.62-.11 5.79-4.45 10.1-10.15 10.1-.02-.01-.05-.01-.08-.01m-12.87-23.59c-6.11 5.98-6.95 16.82-1.76 24.2 2.23 3.17 5.22 5.36 9.07 6.31 5.77 1.43 10.91.24 15.48-4.03.17 1.59.29 2.66.4 3.71h7.28V16.01h-7.38l-.21 3.58c-4.18-3.06-8.35-4.58-12.24-4.58-3.93 0-7.56 1.53-10.64 4.55m-26.27 2.15c4.44.12 7.66 3.04 8.37 7.69h-17.74c.97-4.82 4.67-7.82 9.37-7.69m-12.63-2.12c-6.03 5.73-7.09 15.86-2.7 23.18 6.35 10.59 23.39 9.23 30.53 2.94-1.01-1.8-2.05-3.63-3.07-5.44-11.66 5.64-19.55 3.99-21.55-4.55h25.6c1.19-7.61-1-14.01-5.85-17.52-3.08-2.23-6.85-3.33-10.61-3.33-4.54 0-9.07 1.6-12.35 4.72m91.45-4.11c-2.18.72-4.01 2.47-6.05 3.8-.06-1.04-.13-2.13-.21-3.47h-7.58v33.91h8.15v-2.95c.01-5-.08-10.01.06-15.02.19-6.67 4.71-10.1 11.18-8.66.34.08.7.01 1.22.01.24-2.58.48-5.07.77-8.25-2.82.19-5.35-.09-7.54.63m40.67-13.19v13.48h-17.27V3.79h-8.09v11.89l-5.42.25v6.8h5.49c0 5.58-.08 10.94.02 16.3.12 6.02 3.36 10.52 8.3 11.31 4.57.74 9.02.24 13.14-2.54-.79-1.98-1.59-3.96-2.45-6.13-1.4.5-2.52 1.03-3.7 1.3-3.8.87-6.57-.35-6.76-3.49-.32-5.51-.09-11.06-.09-16.86h16.83v27.11h7.97c.05-.77.12-1.4.12-2.04.03-5.86-.07-11.72.1-17.57.13-4.48 3.66-7.74 8.08-7.85 4.04-.1 6.94 2.76 7.3 7.4.19 2.44.17 4.91.19 7.36.03 4.23.01 8.45.01 12.61h8.19c0-7.42.19-14.6-.05-21.77-.3-9.01-7.46-14.58-16.19-12.58-2.76.63-5.28 2.32-8.06 3.6V2.29h-7.66zM80.83 2.27v47.64h8.3c.06-1.01.13-1.74.13-2.48.03-5.76-.07-11.52.09-17.28.13-4.49 3.63-7.74 8.06-7.86 4.04-.11 6.95 2.75 7.32 7.37.19 2.35.17 4.72.19 7.07.03 4.32.01 8.65.01 12.94h8.18c0-7.49.25-14.76-.06-22.01-.39-8.99-7.56-14.36-16.37-12.32-2.67.62-5.1 2.33-7.88 3.65V2.27h-7.97z"/></defs><clipPath id="d"><use xlink:href="#c" overflow="visible"/></clipPath><linearGradient id="e" gradientUnits="userSpaceOnUse" y1="64.65" x2="1" y2="64.65" gradientTransform="matrix(246.6954 0 0 -246.6954 80.875 15982.598)"><stop offset="0" stop-color="#ED1867"/><stop offset="1" stop-color="#F37023"/></linearGradient><path clip-path="url(#d)" fill="url(#e)" d="M80.83 2.27h246.7v62.38H80.83z"/><defs><path id="f" d="M58.08 47.72c-2.15-.01-3.74-1.66-3.74-3.87.01-2.14 1.67-3.8 3.79-3.77 2.1.03 3.73 1.69 3.73 3.8-.01 2.17-1.64 3.84-3.75 3.84h-.03m-.03-8.69c-.38.06-.76.11-1.13.2-2.25.54-3.76 2.66-3.63 5.1.11 2.13 1.94 4.05 4.13 4.34.09.01.17.06.26.09h.84c.6-.19 1.23-.31 1.79-.58 1.8-.88 2.89-2.99 2.59-4.9-.34-2.13-1.88-3.76-3.93-4.13-.27-.05-.55-.08-.82-.11h-.1z"/></defs><clipPath id="g"><use xlink:href="#f" overflow="visible"/></clipPath><linearGradient id="h" gradientUnits="userSpaceOnUse" y1="64.65" x2="1" y2="64.65" gradientTransform="matrix(9.6594 0 0 -9.6594 53.273 668.38)"><stop offset="0" stop-color="#ED1867"/><stop offset="1" stop-color="#F37023"/></linearGradient><path clip-path="url(#g)" fill="url(#h)" d="M53.15 39.03h10.03v9.72H53.15z"/><defs><path id="i" d="M57.32 43.61v-1.39c.4 0 .8-.03 1.19.01.39.04.61.37.57.77-.04.4-.29.6-.68.61-.13.01-.26.01-.39.01-.23-.01-.45-.01-.69-.01m-1.02 2.77h1.01v-1.96c.81-.08.81-.08 1.1.57.08.18.15.37.24.56.42.93.42.93 1.46.86.01 0 .03-.01.08-.03-.33-.71-.66-1.41-.99-2.13.72-.31 1-.82.92-1.55-.07-.59-.39-1.1-.96-1.19-.94-.14-1.9-.12-2.85-.17v5.04z"/></defs><clipPath id="j"><use xlink:href="#i" overflow="visible"/></clipPath><linearGradient id="k" gradientUnits="userSpaceOnUse" y1="64.65" x2="1" y2="64.65" gradientTransform="matrix(3.8847 0 0 -3.8847 56.297 295.027)"><stop offset="0" stop-color="#ED1867"/><stop offset="1" stop-color="#F37023"/></linearGradient><path clip-path="url(#j)" fill="url(#k)" d="M56.3 41.33h3.9v5.15h-3.9z"/></svg>